<svg xmlns="http://www.w3.org/2000/svg" xmlns:xlink="http://www.w3.org/1999/xlink" width="45" zoomAndPan="magnify" viewBox="0 0 33.75 30.000001" height="40" preserveAspectRatio="xMidYMid meet" version="1.0"><defs><g/></defs><g fill="#000000" fill-opacity="1"><g transform="translate(1.584677, 10.462257)"><g><path d="M 3.703125 -6.0625 C 3.773438 -6.101562 3.835938 -6.132812 3.890625 -6.15625 C 3.953125 -6.1875 4.007812 -6.203125 4.0625 -6.203125 C 4.269531 -6.203125 4.472656 -6.050781 4.671875 -5.75 C 4.867188 -5.445312 4.96875 -5.128906 4.96875 -4.796875 C 4.96875 -4.648438 4.929688 -4.535156 4.859375 -4.453125 C 4.785156 -4.378906 4.691406 -4.34375 4.578125 -4.34375 C 4.410156 -4.34375 4.210938 -4.484375 3.984375 -4.765625 L 3.953125 -4.796875 C 3.753906 -5.046875 3.566406 -5.21875 3.390625 -5.3125 C 3.222656 -5.40625 3.035156 -5.453125 2.828125 -5.453125 C 2.554688 -5.453125 2.34375 -5.390625 2.1875 -5.265625 C 2.03125 -5.140625 1.953125 -4.972656 1.953125 -4.765625 C 1.953125 -4.421875 2.363281 -4.070312 3.1875 -3.71875 C 3.28125 -3.675781 3.351562 -3.640625 3.40625 -3.609375 C 4.050781 -3.328125 4.492188 -3.046875 4.734375 -2.765625 C 4.984375 -2.492188 5.109375 -2.148438 5.109375 -1.734375 C 5.109375 -1.160156 4.882812 -0.703125 4.4375 -0.359375 C 3.988281 -0.0234375 3.394531 0.140625 2.65625 0.140625 C 2.226562 0.140625 1.820312 0.09375 1.4375 0 C 1.0625 -0.09375 0.789062 -0.207031 0.625 -0.34375 C 0.519531 -0.425781 0.425781 -0.585938 0.34375 -0.828125 C 0.269531 -1.066406 0.234375 -1.316406 0.234375 -1.578125 C 0.234375 -1.765625 0.265625 -1.90625 0.328125 -2 C 0.398438 -2.101562 0.5 -2.15625 0.625 -2.15625 C 0.800781 -2.15625 0.984375 -1.988281 1.171875 -1.65625 C 1.242188 -1.53125 1.304688 -1.4375 1.359375 -1.375 C 1.503906 -1.132812 1.679688 -0.957031 1.890625 -0.84375 C 2.097656 -0.726562 2.332031 -0.671875 2.59375 -0.671875 C 2.84375 -0.671875 3.050781 -0.738281 3.21875 -0.875 C 3.382812 -1.007812 3.46875 -1.179688 3.46875 -1.390625 C 3.46875 -1.585938 3.40625 -1.753906 3.28125 -1.890625 C 3.15625 -2.023438 2.878906 -2.191406 2.453125 -2.390625 C 2.398438 -2.421875 2.316406 -2.460938 2.203125 -2.515625 C 1.628906 -2.765625 1.203125 -3.007812 0.921875 -3.25 C 0.734375 -3.40625 0.59375 -3.582031 0.5 -3.78125 C 0.414062 -3.988281 0.375 -4.21875 0.375 -4.46875 C 0.375 -4.96875 0.582031 -5.382812 1 -5.71875 C 1.414062 -6.0625 1.945312 -6.234375 2.59375 -6.234375 C 2.757812 -6.234375 2.929688 -6.21875 3.109375 -6.1875 C 3.296875 -6.15625 3.492188 -6.113281 3.703125 -6.0625 Z M 3.703125 -6.0625 "/></g></g></g><g fill="#000000" fill-opacity="1"><g transform="translate(7.46215, 10.462257)"><g><path d="M 4.171875 -6.125 C 4.316406 -6.125 4.46875 -6.132812 4.625 -6.15625 C 4.789062 -6.1875 4.878906 -6.203125 4.890625 -6.203125 C 5.015625 -6.203125 5.117188 -6.09375 5.203125 -5.875 C 5.296875 -5.664062 5.34375 -5.394531 5.34375 -5.0625 C 5.34375 -4.914062 5.3125 -4.804688 5.25 -4.734375 C 5.195312 -4.660156 5.117188 -4.625 5.015625 -4.625 C 4.910156 -4.625 4.800781 -4.703125 4.6875 -4.859375 C 4.582031 -5.015625 4.507812 -5.109375 4.46875 -5.140625 C 4.363281 -5.222656 4.21875 -5.28125 4.03125 -5.3125 C 3.851562 -5.351562 3.601562 -5.375 3.28125 -5.375 C 2.914062 -5.375 2.675781 -5.359375 2.5625 -5.328125 C 2.457031 -5.304688 2.394531 -5.265625 2.375 -5.203125 C 2.351562 -5.128906 2.332031 -4.972656 2.3125 -4.734375 C 2.300781 -4.503906 2.296875 -4.21875 2.296875 -3.875 C 2.296875 -3.6875 2.457031 -3.59375 2.78125 -3.59375 C 3.125 -3.59375 3.34375 -3.613281 3.4375 -3.65625 C 3.53125 -3.707031 3.59375 -3.804688 3.625 -3.953125 C 3.644531 -3.992188 3.65625 -4.0625 3.65625 -4.15625 C 3.6875 -4.394531 3.789062 -4.515625 3.96875 -4.515625 C 4.125 -4.515625 4.234375 -4.421875 4.296875 -4.234375 C 4.359375 -4.054688 4.390625 -3.734375 4.390625 -3.265625 C 4.390625 -2.734375 4.351562 -2.375 4.28125 -2.1875 C 4.21875 -2.007812 4.101562 -1.921875 3.9375 -1.921875 C 3.78125 -1.921875 3.691406 -2.035156 3.671875 -2.265625 C 3.660156 -2.367188 3.644531 -2.445312 3.625 -2.5 C 3.59375 -2.644531 3.53125 -2.738281 3.4375 -2.78125 C 3.34375 -2.832031 3.128906 -2.859375 2.796875 -2.859375 L 2.734375 -2.859375 C 2.523438 -2.859375 2.398438 -2.84375 2.359375 -2.8125 C 2.316406 -2.78125 2.296875 -2.695312 2.296875 -2.5625 L 2.296875 -2.375 C 2.296875 -2 2.300781 -1.703125 2.3125 -1.484375 C 2.332031 -1.265625 2.359375 -1.117188 2.390625 -1.046875 C 2.429688 -0.953125 2.515625 -0.878906 2.640625 -0.828125 C 2.773438 -0.785156 2.976562 -0.765625 3.25 -0.765625 C 3.675781 -0.765625 4 -0.789062 4.21875 -0.84375 C 4.4375 -0.90625 4.597656 -1.003906 4.703125 -1.140625 C 4.765625 -1.234375 4.84375 -1.390625 4.9375 -1.609375 C 5.039062 -1.835938 5.15625 -1.953125 5.28125 -1.953125 C 5.382812 -1.953125 5.460938 -1.910156 5.515625 -1.828125 C 5.566406 -1.742188 5.59375 -1.625 5.59375 -1.46875 C 5.59375 -1.050781 5.535156 -0.679688 5.421875 -0.359375 C 5.316406 -0.046875 5.195312 0.109375 5.0625 0.109375 C 5.050781 0.109375 5.019531 0.0976562 4.96875 0.078125 C 4.769531 0.0234375 4.578125 0 4.390625 0 L 1.40625 0 C 0.851562 0 0.507812 -0.0234375 0.375 -0.078125 C 0.238281 -0.140625 0.171875 -0.242188 0.171875 -0.390625 C 0.171875 -0.535156 0.25 -0.648438 0.40625 -0.734375 C 0.570312 -0.816406 0.664062 -0.875 0.6875 -0.90625 C 0.71875 -0.957031 0.742188 -1.191406 0.765625 -1.609375 C 0.796875 -2.023438 0.8125 -2.585938 0.8125 -3.296875 C 0.8125 -3.859375 0.800781 -4.304688 0.78125 -4.640625 C 0.757812 -4.972656 0.726562 -5.171875 0.6875 -5.234375 C 0.664062 -5.253906 0.570312 -5.304688 0.40625 -5.390625 C 0.25 -5.472656 0.171875 -5.585938 0.171875 -5.734375 C 0.171875 -5.878906 0.238281 -5.976562 0.375 -6.03125 C 0.507812 -6.09375 0.875 -6.125 1.46875 -6.125 Z M 4.171875 -6.125 "/></g></g></g><g fill="#000000" fill-opacity="1"><g transform="translate(13.643101, 10.462257)"><g><path d="M 2.328125 -3.8125 L 2.328125 -3.5 C 2.378906 -3.5 2.429688 -3.492188 2.484375 -3.484375 C 2.546875 -3.484375 2.628906 -3.484375 2.734375 -3.484375 C 3.171875 -3.484375 3.488281 -3.554688 3.6875 -3.703125 C 3.894531 -3.859375 4 -4.097656 4 -4.421875 C 4 -4.734375 3.90625 -4.972656 3.71875 -5.140625 C 3.53125 -5.304688 3.265625 -5.390625 2.921875 -5.390625 C 2.742188 -5.390625 2.617188 -5.367188 2.546875 -5.328125 C 2.472656 -5.296875 2.421875 -5.238281 2.390625 -5.15625 C 2.367188 -5.09375 2.351562 -4.984375 2.34375 -4.828125 C 2.332031 -4.671875 2.328125 -4.332031 2.328125 -3.8125 Z M 2.34375 -2.640625 C 2.332031 -2.554688 2.328125 -2.441406 2.328125 -2.296875 C 2.328125 -2.160156 2.328125 -2.0625 2.328125 -2 C 2.328125 -1.664062 2.332031 -1.410156 2.34375 -1.234375 C 2.363281 -1.054688 2.390625 -0.945312 2.421875 -0.90625 C 2.441406 -0.875 2.53125 -0.816406 2.6875 -0.734375 C 2.851562 -0.648438 2.9375 -0.535156 2.9375 -0.390625 C 2.9375 -0.234375 2.84375 -0.117188 2.65625 -0.046875 C 2.46875 0.015625 2.109375 0.046875 1.578125 0.046875 C 1.035156 0.046875 0.671875 0.015625 0.484375 -0.046875 C 0.296875 -0.109375 0.203125 -0.222656 0.203125 -0.390625 C 0.203125 -0.535156 0.285156 -0.648438 0.453125 -0.734375 C 0.617188 -0.816406 0.710938 -0.875 0.734375 -0.90625 C 0.773438 -0.957031 0.804688 -1.191406 0.828125 -1.609375 C 0.847656 -2.023438 0.859375 -2.585938 0.859375 -3.296875 C 0.859375 -3.859375 0.847656 -4.304688 0.828125 -4.640625 C 0.804688 -4.972656 0.773438 -5.171875 0.734375 -5.234375 C 0.710938 -5.265625 0.617188 -5.316406 0.453125 -5.390625 C 0.285156 -5.472656 0.203125 -5.585938 0.203125 -5.734375 C 0.203125 -5.867188 0.257812 -5.96875 0.375 -6.03125 C 0.488281 -6.101562 0.660156 -6.140625 0.890625 -6.140625 C 1.035156 -6.140625 1.207031 -6.132812 1.40625 -6.125 C 1.613281 -6.125 1.75 -6.125 1.8125 -6.125 C 2.019531 -6.125 2.300781 -6.128906 2.65625 -6.140625 C 3.007812 -6.160156 3.257812 -6.171875 3.40625 -6.171875 C 4.09375 -6.171875 4.613281 -6.03125 4.96875 -5.75 C 5.320312 -5.476562 5.5 -5.078125 5.5 -4.546875 C 5.5 -4.148438 5.394531 -3.8125 5.1875 -3.53125 C 4.976562 -3.25 4.703125 -3.070312 4.359375 -3 C 4.347656 -2.976562 4.335938 -2.960938 4.328125 -2.953125 C 4.328125 -2.941406 4.328125 -2.929688 4.328125 -2.921875 C 4.335938 -2.921875 4.347656 -2.914062 4.359375 -2.90625 C 4.503906 -2.863281 4.628906 -2.8125 4.734375 -2.75 C 4.835938 -2.6875 4.929688 -2.613281 5.015625 -2.53125 C 5.078125 -2.46875 5.132812 -2.394531 5.1875 -2.3125 C 5.238281 -2.226562 5.28125 -2.132812 5.3125 -2.03125 C 5.363281 -1.90625 5.414062 -1.71875 5.46875 -1.46875 C 5.53125 -1.21875 5.585938 -1.046875 5.640625 -0.953125 C 5.703125 -0.847656 5.820312 -0.773438 6 -0.734375 C 6.039062 -0.722656 6.070312 -0.710938 6.09375 -0.703125 C 6.1875 -0.671875 6.253906 -0.628906 6.296875 -0.578125 C 6.335938 -0.535156 6.359375 -0.476562 6.359375 -0.40625 C 6.359375 -0.238281 6.265625 -0.109375 6.078125 -0.015625 C 5.890625 0.078125 5.632812 0.125 5.3125 0.125 C 5.09375 0.125 4.90625 0.0976562 4.75 0.046875 C 4.59375 -0.00390625 4.460938 -0.078125 4.359375 -0.171875 C 4.171875 -0.347656 4 -0.707031 3.84375 -1.25 C 3.8125 -1.375 3.785156 -1.46875 3.765625 -1.53125 C 3.617188 -1.988281 3.46875 -2.285156 3.3125 -2.421875 C 3.15625 -2.566406 2.910156 -2.640625 2.578125 -2.640625 C 2.515625 -2.640625 2.460938 -2.640625 2.421875 -2.640625 C 2.390625 -2.640625 2.363281 -2.640625 2.34375 -2.640625 Z M 2.34375 -2.640625 "/></g></g></g><g fill="#000000" fill-opacity="1"><g transform="translate(1.584677, 17.461359)"><g><path d="M 4.171875 -6.125 C 4.316406 -6.125 4.46875 -6.132812 4.625 -6.15625 C 4.789062 -6.1875 4.878906 -6.203125 4.890625 -6.203125 C 5.015625 -6.203125 5.117188 -6.09375 5.203125 -5.875 C 5.296875 -5.664062 5.34375 -5.394531 5.34375 -5.0625 C 5.34375 -4.914062 5.3125 -4.804688 5.25 -4.734375 C 5.195312 -4.660156 5.117188 -4.625 5.015625 -4.625 C 4.910156 -4.625 4.800781 -4.703125 4.6875 -4.859375 C 4.582031 -5.015625 4.507812 -5.109375 4.46875 -5.140625 C 4.363281 -5.222656 4.21875 -5.28125 4.03125 -5.3125 C 3.851562 -5.351562 3.601562 -5.375 3.28125 -5.375 C 2.914062 -5.375 2.675781 -5.359375 2.5625 -5.328125 C 2.457031 -5.304688 2.394531 -5.265625 2.375 -5.203125 C 2.351562 -5.128906 2.332031 -4.972656 2.3125 -4.734375 C 2.300781 -4.503906 2.296875 -4.21875 2.296875 -3.875 C 2.296875 -3.6875 2.457031 -3.59375 2.78125 -3.59375 C 3.125 -3.59375 3.34375 -3.613281 3.4375 -3.65625 C 3.53125 -3.707031 3.59375 -3.804688 3.625 -3.953125 C 3.644531 -3.992188 3.65625 -4.0625 3.65625 -4.15625 C 3.6875 -4.394531 3.789062 -4.515625 3.96875 -4.515625 C 4.125 -4.515625 4.234375 -4.421875 4.296875 -4.234375 C 4.359375 -4.054688 4.390625 -3.734375 4.390625 -3.265625 C 4.390625 -2.734375 4.351562 -2.375 4.28125 -2.1875 C 4.21875 -2.007812 4.101562 -1.921875 3.9375 -1.921875 C 3.78125 -1.921875 3.691406 -2.035156 3.671875 -2.265625 C 3.660156 -2.367188 3.644531 -2.445312 3.625 -2.5 C 3.59375 -2.644531 3.53125 -2.738281 3.4375 -2.78125 C 3.34375 -2.832031 3.128906 -2.859375 2.796875 -2.859375 L 2.734375 -2.859375 C 2.523438 -2.859375 2.398438 -2.84375 2.359375 -2.8125 C 2.316406 -2.78125 2.296875 -2.695312 2.296875 -2.5625 L 2.296875 -2.375 C 2.296875 -2 2.300781 -1.703125 2.3125 -1.484375 C 2.332031 -1.265625 2.359375 -1.117188 2.390625 -1.046875 C 2.429688 -0.953125 2.515625 -0.878906 2.640625 -0.828125 C 2.773438 -0.785156 2.976562 -0.765625 3.25 -0.765625 C 3.675781 -0.765625 4 -0.789062 4.21875 -0.84375 C 4.4375 -0.90625 4.597656 -1.003906 4.703125 -1.140625 C 4.765625 -1.234375 4.84375 -1.390625 4.9375 -1.609375 C 5.039062 -1.835938 5.15625 -1.953125 5.28125 -1.953125 C 5.382812 -1.953125 5.460938 -1.910156 5.515625 -1.828125 C 5.566406 -1.742188 5.59375 -1.625 5.59375 -1.46875 C 5.59375 -1.050781 5.535156 -0.679688 5.421875 -0.359375 C 5.316406 -0.046875 5.195312 0.109375 5.0625 0.109375 C 5.050781 0.109375 5.019531 0.0976562 4.96875 0.078125 C 4.769531 0.0234375 4.578125 0 4.390625 0 L 1.40625 0 C 0.851562 0 0.507812 -0.0234375 0.375 -0.078125 C 0.238281 -0.140625 0.171875 -0.242188 0.171875 -0.390625 C 0.171875 -0.535156 0.25 -0.648438 0.40625 -0.734375 C 0.570312 -0.816406 0.664062 -0.875 0.6875 -0.90625 C 0.71875 -0.957031 0.742188 -1.191406 0.765625 -1.609375 C 0.796875 -2.023438 0.8125 -2.585938 0.8125 -3.296875 C 0.8125 -3.859375 0.800781 -4.304688 0.78125 -4.640625 C 0.757812 -4.972656 0.726562 -5.171875 0.6875 -5.234375 C 0.664062 -5.253906 0.570312 -5.304688 0.40625 -5.390625 C 0.25 -5.472656 0.171875 -5.585938 0.171875 -5.734375 C 0.171875 -5.878906 0.238281 -5.976562 0.375 -6.03125 C 0.507812 -6.09375 0.875 -6.125 1.46875 -6.125 Z M 4.171875 -6.125 "/></g></g></g><g fill="#000000" fill-opacity="1"><g transform="translate(7.765627, 17.461359)"><g><path d="M 1.953125 -3.84375 C 1.929688 -3.851562 1.914062 -3.859375 1.90625 -3.859375 C 1.894531 -3.859375 1.890625 -3.859375 1.890625 -3.859375 C 1.859375 -3.859375 1.832031 -3.847656 1.8125 -3.828125 C 1.800781 -3.816406 1.789062 -3.789062 1.78125 -3.75 C 1.78125 -3.707031 1.78125 -3.644531 1.78125 -3.5625 C 1.769531 -3.332031 1.765625 -3.179688 1.765625 -3.109375 C 1.765625 -2.484375 1.773438 -1.972656 1.796875 -1.578125 C 1.816406 -1.179688 1.847656 -0.957031 1.890625 -0.90625 C 1.910156 -0.875 2 -0.816406 2.15625 -0.734375 C 2.320312 -0.648438 2.40625 -0.535156 2.40625 -0.390625 C 2.40625 -0.242188 2.328125 -0.132812 2.171875 -0.0625 C 2.015625 0 1.742188 0.03125 1.359375 0.03125 C 0.953125 0.03125 0.671875 0 0.515625 -0.0625 C 0.359375 -0.132812 0.28125 -0.242188 0.28125 -0.390625 C 0.28125 -0.535156 0.359375 -0.648438 0.515625 -0.734375 C 0.679688 -0.816406 0.773438 -0.875 0.796875 -0.90625 C 0.828125 -0.957031 0.851562 -1.191406 0.875 -1.609375 C 0.90625 -2.023438 0.921875 -2.585938 0.921875 -3.296875 C 0.921875 -3.859375 0.90625 -4.304688 0.875 -4.640625 C 0.851562 -4.972656 0.828125 -5.164062 0.796875 -5.21875 C 0.773438 -5.257812 0.679688 -5.316406 0.515625 -5.390625 C 0.359375 -5.472656 0.28125 -5.585938 0.28125 -5.734375 C 0.28125 -5.878906 0.351562 -5.984375 0.5 -6.046875 C 0.65625 -6.117188 0.90625 -6.15625 1.25 -6.15625 C 1.53125 -6.15625 1.722656 -6.140625 1.828125 -6.109375 C 1.941406 -6.078125 2.039062 -6.019531 2.125 -5.9375 C 2.507812 -5.5625 3.035156 -5.003906 3.703125 -4.265625 C 4.378906 -3.523438 4.878906 -3.003906 5.203125 -2.703125 C 5.222656 -2.691406 5.238281 -2.6875 5.25 -2.6875 C 5.257812 -2.6875 5.269531 -2.6875 5.28125 -2.6875 C 5.300781 -2.6875 5.320312 -2.695312 5.34375 -2.71875 C 5.363281 -2.738281 5.375 -2.769531 5.375 -2.8125 C 5.382812 -2.851562 5.390625 -2.894531 5.390625 -2.9375 C 5.390625 -2.988281 5.390625 -3.054688 5.390625 -3.140625 C 5.390625 -3.710938 5.375 -4.1875 5.34375 -4.5625 C 5.320312 -4.945312 5.289062 -5.171875 5.25 -5.234375 C 5.226562 -5.253906 5.132812 -5.304688 4.96875 -5.390625 C 4.8125 -5.472656 4.734375 -5.585938 4.734375 -5.734375 C 4.734375 -5.890625 4.8125 -6 4.96875 -6.0625 C 5.132812 -6.125 5.410156 -6.15625 5.796875 -6.15625 C 6.191406 -6.15625 6.46875 -6.125 6.625 -6.0625 C 6.789062 -6 6.875 -5.890625 6.875 -5.734375 C 6.875 -5.585938 6.789062 -5.472656 6.625 -5.390625 C 6.457031 -5.304688 6.367188 -5.253906 6.359375 -5.234375 C 6.316406 -5.171875 6.285156 -4.925781 6.265625 -4.5 C 6.242188 -4.070312 6.234375 -3.46875 6.234375 -2.6875 C 6.234375 -2.65625 6.234375 -2.445312 6.234375 -2.0625 C 6.242188 -1.6875 6.25 -1.328125 6.25 -0.984375 C 6.25 -0.546875 6.21875 -0.257812 6.15625 -0.125 C 6.101562 0 6.003906 0.0625 5.859375 0.0625 C 5.691406 0.0625 5.382812 -0.1875 4.9375 -0.6875 C 4.78125 -0.851562 4.65625 -0.988281 4.5625 -1.09375 C 4.351562 -1.320312 4.066406 -1.632812 3.703125 -2.03125 C 2.742188 -3.0625 2.160156 -3.664062 1.953125 -3.84375 Z M 1.953125 -3.84375 "/></g></g></g><g fill="#000000" fill-opacity="1"><g transform="translate(15.418849, 17.461359)"><g><path d="M 1.515625 -6.171875 C 2.054688 -6.171875 2.414062 -6.140625 2.59375 -6.078125 C 2.78125 -6.015625 2.875 -5.898438 2.875 -5.734375 C 2.875 -5.585938 2.789062 -5.472656 2.625 -5.390625 C 2.46875 -5.316406 2.378906 -5.257812 2.359375 -5.21875 C 2.316406 -5.164062 2.285156 -4.972656 2.265625 -4.640625 C 2.242188 -4.304688 2.234375 -3.859375 2.234375 -3.296875 C 2.234375 -2.585938 2.242188 -2.023438 2.265625 -1.609375 C 2.285156 -1.191406 2.316406 -0.957031 2.359375 -0.90625 C 2.367188 -0.875 2.457031 -0.816406 2.625 -0.734375 C 2.789062 -0.648438 2.875 -0.535156 2.875 -0.390625 C 2.875 -0.234375 2.78125 -0.117188 2.59375 -0.046875 C 2.40625 0.015625 2.046875 0.046875 1.515625 0.046875 C 0.992188 0.046875 0.640625 0.015625 0.453125 -0.046875 C 0.265625 -0.117188 0.171875 -0.234375 0.171875 -0.390625 C 0.171875 -0.535156 0.25 -0.648438 0.40625 -0.734375 C 0.570312 -0.816406 0.664062 -0.875 0.6875 -0.90625 C 0.71875 -0.957031 0.742188 -1.191406 0.765625 -1.609375 C 0.796875 -2.023438 0.8125 -2.585938 0.8125 -3.296875 C 0.8125 -3.859375 0.800781 -4.304688 0.78125 -4.640625 C 0.757812 -4.972656 0.726562 -5.171875 0.6875 -5.234375 C 0.664062 -5.253906 0.570312 -5.304688 0.40625 -5.390625 C 0.25 -5.472656 0.171875 -5.585938 0.171875 -5.734375 C 0.171875 -5.898438 0.265625 -6.015625 0.453125 -6.078125 C 0.640625 -6.140625 0.992188 -6.171875 1.515625 -6.171875 Z M 1.515625 -6.171875 "/></g></g></g><g fill="#000000" fill-opacity="1"><g transform="translate(1.584677, 25.160371)"><g><path d="M 5.359375 -7 C 5.566406 -7 5.78125 -7.023438 6 -7.078125 C 6.0625 -7.097656 6.101562 -7.109375 6.125 -7.109375 C 6.269531 -7.109375 6.410156 -6.921875 6.546875 -6.546875 C 6.691406 -6.171875 6.765625 -5.75 6.765625 -5.28125 C 6.765625 -5.113281 6.734375 -4.984375 6.671875 -4.890625 C 6.617188 -4.804688 6.535156 -4.765625 6.421875 -4.765625 C 6.222656 -4.765625 6.03125 -4.941406 5.84375 -5.296875 C 5.820312 -5.347656 5.800781 -5.390625 5.78125 -5.421875 L 5.78125 -5.4375 C 5.550781 -5.863281 5.234375 -6.078125 4.828125 -6.078125 C 4.617188 -6.078125 4.476562 -6.050781 4.40625 -6 C 4.332031 -5.957031 4.285156 -5.859375 4.265625 -5.703125 C 4.253906 -5.617188 4.242188 -5.414062 4.234375 -5.09375 C 4.222656 -4.769531 4.21875 -4.414062 4.21875 -4.03125 C 4.21875 -3.21875 4.226562 -2.550781 4.25 -2.03125 C 4.269531 -1.519531 4.296875 -1.203125 4.328125 -1.078125 C 4.347656 -1.015625 4.441406 -0.945312 4.609375 -0.875 L 4.609375 -0.859375 C 4.742188 -0.804688 4.832031 -0.75 4.875 -0.6875 C 4.925781 -0.625 4.953125 -0.546875 4.953125 -0.453125 C 4.953125 -0.265625 4.84375 -0.132812 4.625 -0.0625 C 4.414062 0.0078125 4.007812 0.046875 3.40625 0.046875 C 2.800781 0.046875 2.390625 0.0078125 2.171875 -0.0625 C 1.960938 -0.132812 1.859375 -0.265625 1.859375 -0.453125 C 1.859375 -0.617188 1.953125 -0.75 2.140625 -0.84375 C 2.328125 -0.9375 2.429688 -1 2.453125 -1.03125 C 2.503906 -1.101562 2.539062 -1.390625 2.5625 -1.890625 C 2.582031 -2.390625 2.59375 -3.101562 2.59375 -4.03125 C 2.59375 -4.414062 2.585938 -4.769531 2.578125 -5.09375 C 2.566406 -5.414062 2.554688 -5.617188 2.546875 -5.703125 C 2.523438 -5.859375 2.476562 -5.957031 2.40625 -6 C 2.332031 -6.050781 2.191406 -6.078125 1.984375 -6.078125 C 1.566406 -6.078125 1.242188 -5.859375 1.015625 -5.421875 C 1.003906 -5.390625 0.976562 -5.34375 0.9375 -5.28125 C 0.769531 -4.9375 0.585938 -4.765625 0.390625 -4.765625 C 0.273438 -4.765625 0.1875 -4.804688 0.125 -4.890625 C 0.0703125 -4.984375 0.046875 -5.113281 0.046875 -5.28125 C 0.046875 -5.75 0.113281 -6.171875 0.25 -6.546875 C 0.394531 -6.921875 0.539062 -7.109375 0.6875 -7.109375 C 0.707031 -7.109375 0.75 -7.097656 0.8125 -7.078125 C 1.03125 -7.023438 1.242188 -7 1.453125 -7 Z M 5.359375 -7 "/></g></g></g><g fill="#000000" fill-opacity="1"><g transform="translate(9.025586, 25.160371)"><g><path d="M 2.5625 -2.984375 C 2.5625 -3.035156 2.554688 -3.085938 2.546875 -3.140625 C 2.535156 -3.191406 2.519531 -3.253906 2.5 -3.328125 C 1.851562 -4.347656 1.410156 -5.023438 1.171875 -5.359375 C 0.941406 -5.691406 0.78125 -5.894531 0.6875 -5.96875 C 0.625 -6.007812 0.523438 -6.050781 0.390625 -6.09375 C 0.117188 -6.195312 -0.015625 -6.335938 -0.015625 -6.515625 C -0.015625 -6.710938 0.0976562 -6.847656 0.328125 -6.921875 C 0.566406 -7.003906 0.988281 -7.046875 1.59375 -7.046875 C 2.15625 -7.046875 2.546875 -7.007812 2.765625 -6.9375 C 2.992188 -6.863281 3.109375 -6.738281 3.109375 -6.5625 C 3.109375 -6.457031 3.046875 -6.351562 2.921875 -6.25 C 2.796875 -6.15625 2.734375 -6.085938 2.734375 -6.046875 C 2.734375 -5.972656 2.820312 -5.785156 3 -5.484375 C 3.1875 -5.191406 3.441406 -4.820312 3.765625 -4.375 C 3.773438 -4.375 3.78125 -4.375 3.78125 -4.375 C 3.789062 -4.375 3.800781 -4.375 3.8125 -4.375 C 3.820312 -4.375 3.828125 -4.375 3.828125 -4.375 C 3.835938 -4.375 3.847656 -4.375 3.859375 -4.375 C 4.117188 -4.78125 4.328125 -5.132812 4.484375 -5.4375 C 4.648438 -5.738281 4.734375 -5.9375 4.734375 -6.03125 C 4.734375 -6.09375 4.695312 -6.140625 4.625 -6.171875 C 4.613281 -6.179688 4.601562 -6.1875 4.59375 -6.1875 C 4.476562 -6.25 4.40625 -6.304688 4.375 -6.359375 C 4.34375 -6.410156 4.328125 -6.476562 4.328125 -6.5625 C 4.328125 -6.726562 4.421875 -6.847656 4.609375 -6.921875 C 4.796875 -7.003906 5.101562 -7.046875 5.53125 -7.046875 C 5.945312 -7.046875 6.257812 -7.003906 6.46875 -6.921875 C 6.675781 -6.835938 6.78125 -6.71875 6.78125 -6.5625 C 6.78125 -6.375 6.617188 -6.21875 6.296875 -6.09375 C 6.117188 -6.03125 6 -5.972656 5.9375 -5.921875 C 5.769531 -5.804688 5.578125 -5.582031 5.359375 -5.25 C 5.140625 -4.914062 4.773438 -4.273438 4.265625 -3.328125 C 4.242188 -3.265625 4.226562 -3.203125 4.21875 -3.140625 C 4.207031 -3.085938 4.203125 -3.03125 4.203125 -2.96875 C 4.222656 -2.269531 4.238281 -1.785156 4.25 -1.515625 C 4.269531 -1.242188 4.300781 -1.082031 4.34375 -1.03125 C 4.363281 -1 4.46875 -0.9375 4.65625 -0.84375 C 4.84375 -0.75 4.9375 -0.617188 4.9375 -0.453125 C 4.9375 -0.265625 4.828125 -0.132812 4.609375 -0.0625 C 4.390625 0.0078125 3.984375 0.046875 3.390625 0.046875 C 2.785156 0.046875 2.375 0.0078125 2.15625 -0.0625 C 1.9375 -0.132812 1.828125 -0.265625 1.828125 -0.453125 C 1.828125 -0.617188 1.921875 -0.75 2.109375 -0.84375 C 2.296875 -0.9375 2.40625 -1 2.4375 -1.03125 C 2.46875 -1.082031 2.492188 -1.234375 2.515625 -1.484375 C 2.535156 -1.734375 2.550781 -2.234375 2.5625 -2.984375 Z M 2.5625 -2.984375 "/></g></g></g></svg>